# xmcd
#
# Track frame offsets:
#	150
#	13714
#	24883
#	38642
#	51387
#	68894
#	80553
#	95291
#	108844
#	121109
#	134592
#	151929
#	163904
#	178646
#
# Disc length: 2611 seconds
#
# Revision: 1
# Processed by: cddbd v1.5.2PL0 Copyright (c) Steve Scherf et al.
# Submitted via: EZCDAudioConverter 7.1.5.1
#
DISCID=ad0a310e
DTITLE=Willie Nelson - Last Man Standing
DYEAR=2018
DGENRE=Country
TTITLE0=Last Man Standing
TTITLE1=Don't Tell Noah
TTITLE2=Bad Breath
TTITLE3=Me And You
TTITLE4=Something You Get Through
TTITLE5=Ready To Roar
TTITLE6=Heaven Is Closed
TTITLE7=I Ain't Got Nothin'
TTITLE8=She Made My Day
TTITLE9=I'll Try To Do Better Next Time
TTITLE10=Very Far To Crawl
TTITLE11=The Front Row (Bonus Track)
TTITLE12=Who'll Buy My Memories (Bonus Track)
TTITLE13=Summer Of Roses - December Day (Bonus Track)
EXTD=
EXTT0=
EXTT1=
EXTT2=
EXTT3=
EXTT4=
EXTT5=
EXTT6=
EXTT7=
EXTT8=
EXTT9=
EXTT10=
EXTT11=
EXTT12=
EXTT13=
PLAYORDER=
